<?xml version="1.0" encoding="UTF-8"?>
<svg id="Layer_1" xmlns="http://www.w3.org/2000/svg" version="1.1" viewBox="0 0 442.35 163.95">
  <!-- Generator: Adobe Illustrator 30.0.0, SVG Export Plug-In . SVG Version: 2.1.1 Build 123)  -->
  <defs>
    <style>
      .st0 {
        fill: #010101;
      }

      .st1 {
        stroke-width: .15px;
      }

      .st1, .st2, .st3, .st4 {
        fill: none;
        stroke: #010101;
        stroke-linejoin: round;
      }

      .st2 {
        stroke-width: .73px;
      }

      .st3 {
        stroke-width: .44px;
      }

      .st4 {
        stroke-width: .59px;
      }
    </style>
  </defs>
  <line class="st1" x1="350.16" y1="87.2" x2="340.89" y2="87.2"/>
  <line class="st1" x1="339.13" y1="87.2" x2="337.36" y2="87.2"/>
  <line class="st1" x1="335.6" y1="87.2" x2="326.77" y2="87.2"/>
  <line class="st1" x1="325.01" y1="87.2" x2="323.24" y2="87.2"/>
  <line class="st1" x1="321.47" y1="87.2" x2="312.65" y2="87.2"/>
  <line class="st1" x1="310.89" y1="87.2" x2="309.12" y2="87.2"/>
  <line class="st1" x1="307.35" y1="87.2" x2="298.53" y2="87.2"/>
  <line class="st1" x1="296.76" y1="87.2" x2="295" y2="87.2"/>
  <line class="st1" x1="293.23" y1="87.2" x2="284.41" y2="87.2"/>
  <line class="st1" x1="282.64" y1="87.2" x2="280.87" y2="87.2"/>
  <line class="st1" x1="279.11" y1="87.2" x2="270.28" y2="87.2"/>
  <line class="st1" x1="268.52" y1="87.2" x2="266.75" y2="87.2"/>
  <line class="st1" x1="264.99" y1="87.2" x2="256.16" y2="87.2"/>
  <line class="st1" x1="254.39" y1="87.2" x2="252.63" y2="87.2"/>
  <line class="st1" x1="250.87" y1="87.2" x2="242.04" y2="87.2"/>
  <line class="st1" x1="240.27" y1="87.2" x2="238.51" y2="87.2"/>
  <line class="st1" x1="236.74" y1="87.2" x2="227.92" y2="87.2"/>
  <line class="st1" x1="226.15" y1="87.2" x2="224.39" y2="87.2"/>
  <line class="st1" x1="222.77" y1="87.2" x2="213.94" y2="87.2"/>
  <line class="st1" x1="212.17" y1="87.2" x2="210.41" y2="87.2"/>
  <line class="st1" x1="208.65" y1="87.2" x2="199.82" y2="87.2"/>
  <line class="st1" x1="198.05" y1="87.2" x2="196.29" y2="87.2"/>
  <line class="st1" x1="194.52" y1="87.2" x2="185.7" y2="87.2"/>
  <line class="st1" x1="183.93" y1="87.2" x2="182.17" y2="87.2"/>
  <line class="st1" x1="180.4" y1="87.2" x2="171.57" y2="87.2"/>
  <line class="st1" x1="169.81" y1="87.2" x2="168.04" y2="87.2"/>
  <line class="st1" x1="166.28" y1="87.2" x2="157.45" y2="87.2"/>
  <line class="st1" x1="155.69" y1="87.2" x2="153.92" y2="87.2"/>
  <line class="st1" x1="152.16" y1="87.2" x2="143.33" y2="87.2"/>
  <line class="st1" x1="141.57" y1="87.2" x2="139.8" y2="87.2"/>
  <line class="st1" x1="138.03" y1="87.2" x2="129.21" y2="87.2"/>
  <line class="st1" x1="127.44" y1="87.2" x2="125.68" y2="87.2"/>
  <line class="st1" x1="123.91" y1="87.2" x2="115.09" y2="87.2"/>
  <line class="st1" x1="113.32" y1="87.2" x2="111.56" y2="87.2"/>
  <line class="st1" x1="109.79" y1="87.2" x2="100.96" y2="87.2"/>
  <line class="st1" x1="99.2" y1="87.2" x2="97.43" y2="87.2"/>
  <line class="st1" x1="95.67" y1="87.2" x2="86.84" y2="87.2"/>
  <line class="st1" x1="85.08" y1="87.2" x2="83.31" y2="87.2"/>
  <line class="st1" x1="81.55" y1="87.2" x2="72.72" y2="87.2"/>
  <line class="st1" x1="70.95" y1="87.2" x2="69.19" y2="87.2"/>
  <line class="st1" x1="67.42" y1="87.2" x2="58.6" y2="87.2"/>
  <line class="st1" x1="56.83" y1="87.2" x2="55.07" y2="87.2"/>
  <line class="st1" x1="53.3" y1="87.2" x2="44.48" y2="87.2"/>
  <line class="st1" x1="42.71" y1="87.2" x2="40.95" y2="87.2"/>
  <line class="st1" x1="39.18" y1="87.2" x2="29.91" y2="87.2"/>
  <line class="st2" x1="16.05" y1="91.28" x2="16.05" y2="90.98"/>
  <line class="st2" x1="16.49" y1="96.71" x2="16.49" y2="96.71"/>
  <line class="st2" x1="16.49" y1="96.71" x2="16.49" y2="96.71"/>
  <line class="st2" x1="16.49" y1="96.71" x2="16.49" y2="96.71"/>
  <polyline class="st2" points="16.49 96.71 16.49 96.56 16.34 96.56"/>
  <line class="st2" x1="18.99" y1="104.79" x2="18.99" y2="104.79"/>
  <line class="st2" x1="18.84" y1="101.71" x2="18.84" y2="101.71"/>
  <line class="st3" x1="36.49" y1="121.1" x2="36.49" y2="121.1"/>
  <line class="st2" x1="16.05" y1="94.8" x2="16.05" y2="94.95"/>
  <line class="st4" x1="36.49" y1="121.1" x2="37.08" y2="121.83"/>
  <line class="st1" x1="58.3" y1="122.46" x2="67.28" y2="72.21"/>
  <line class="st2" x1="99.01" y1="42.94" x2="99.01" y2="43.09"/>
  <polyline class="st4" points="123.58 52.49 123.58 52.49 123.58 52.64 123.43 52.64 123.43 52.79 123.29 52.79 123.29 52.93 123.29 53.08 123.29 53.23 123.29 53.37"/>
  <line class="st4" x1="105.63" y1="48.23" x2="67.24" y2="72.18"/>
  <line class="st2" x1="99.01" y1="43.09" x2="99.01" y2="43.09"/>
  <polyline class="st4" points="143 116.84 143.15 116.84 143.15 116.98 143.15 117.13 143.29 117.13 143.44 117.13 143.44 117.28 143.73 117.28 143.88 117.43 144.32 117.57 144.47 117.57 144.91 117.72 145.06 117.72 145.35 117.72 145.65 117.72 146.09 117.72 146.53 117.72 146.97 117.72 147.41 117.57 148.15 117.43 148.59 117.43 149.03 117.28 149.47 117.28 149.91 117.13 150.35 116.98 150.79 116.84 151.09 116.69 151.24 116.69 151.24 116.54 151.38 116.54 151.38 116.4 151.38 116.25"/>
  <polyline class="st4" points="123.29 53.37 123.29 53.37 123.29 53.52 123.43 53.52 123.43 53.67 123.58 53.67"/>
  <line class="st3" x1="124.9" y1="52.05" x2="124.9" y2="52.05"/>
  <line class="st4" x1="151.38" y1="116.25" x2="131.67" y2="52.79"/>
  <line class="st4" x1="123.29" y1="53.37" x2="123.29" y2="53.23"/>
  <line class="st4" x1="123.29" y1="53.37" x2="123.29" y2="53.37"/>
  <line class="st1" x1="124.94" y1="58.7" x2="76.84" y2="87.05"/>
  <line class="st3" x1="123.73" y1="52.49" x2="123.73" y2="52.49"/>
  <polyline class="st4" points="123.29 53.37 123.29 53.37 123.29 53.52 123.43 53.52 123.43 53.67 123.58 53.67 123.73 53.82 123.88 53.82 124.17 53.96 124.32 53.96 124.61 53.96 124.76 54.11 124.9 54.11 125.2 54.26 125.49 54.26 126.23 54.26 126.82 54.26 127.26 54.11 127.7 54.11 128.14 54.11 128.58 53.96 129.02 53.82 129.61 53.82 130.05 53.67 130.5 53.52 130.94 53.37 131.38 53.23 131.53 53.23 131.53 53.08 131.67 53.08 131.67 52.93 131.67 52.79 131.67 52.64 131.53 52.64 131.53 52.49 131.38 52.49 130.94 52.35 130.5 52.35 130.05 52.2 129.61 52.05 129.17 52.05 128.29 51.9 127.85 51.9 127.26 51.76 126.82 51.76 126.38 51.76 125.79 51.76 125.49 51.9 125.34 51.9 125.05 51.9 124.76 52.05 124.9 52.05 124.61 52.05 124.46 52.2 124.17 52.2 124.02 52.35 123.73 52.35 123.73 52.49 123.58 52.49 123.58 52.64 123.43 52.64 123.43 52.79 123.29 52.79 123.29 52.93 123.29 53.08 123.29 53.23"/>
  <polyline class="st1" points="215.12 82.64 214.97 82.79 214.97 82.94 214.82 83.09 214.82 83.23 214.68 83.38 214.68 83.53 214.53 83.67 214.38 83.97 214.23 84.11 214.23 84.26 214.09 84.41 213.94 84.55 213.94 84.7 213.79 84.7 213.65 84.85 213.5 85 213.5 85.14 213.35 85.29 213.06 85.44 212.91 85.58 212.76 85.73 212.76 85.88 212.62 85.88 212.47 86.02 212.32 86.17 212.17 86.17 212.03 86.32 211.88 86.32 211.73 86.46 211.73 86.61 211.59 86.61 211.44 86.76 211.29 86.76 211.15 86.76 211.15 86.91 211 86.91 210.85 86.91 210.71 87.05 210.56 87.05 210.41 87.2 210.26 87.2 210.12 87.2 167.02 101.3 166.87 101.3 166.72 101.3 166.72 101.45 166.57 101.45 166.43 101.45 165.84 101.45 165.69 101.45 165.69 101.3 165.54 101.3 165.4 101.3 165.25 101.3 165.1 101.16 164.96 101.16 164.81 101.16 164.81 101.01 164.37 100.86 164.37 100.72 164.22 100.72 164.22 100.57 164.07 100.57 164.07 100.42 163.92 100.27 163.78 100.13 163.78 99.98 163.63 99.98 163.63 99.83 163.48 99.69 163.48 99.54 163.48 99.39 163.48 99.25 163.34 99.25 163.34 99.1 163.34 98.95 163.34 98.36 163.34 98.22 163.34 98.07 163.48 97.92 163.48 97.78 163.48 97.63 175.84 66.93 175.84 66.78 175.84 66.63 175.99 66.48 175.99 66.34 176.14 66.34 176.14 66.19 176.28 66.05 176.43 65.9 176.58 65.75 176.72 65.75 176.72 65.6 176.87 65.6 177.02 65.46 177.16 65.46 177.16 65.31 177.31 65.31 177.61 65.31 177.61 65.16 177.75 65.16 177.9 65.16 178.05 65.16 178.19 65.16 178.63 65.16 178.78 65.16 178.93 65.16 179.08 65.16 179.22 65.16 179.37 65.31 213.79 78.09 213.94 78.09 213.94 78.24 214.09 78.24 214.23 78.24 214.23 78.39 214.38 78.39 214.53 78.53 214.68 78.68 214.82 78.68 214.82 78.83 214.97 78.83 214.97 78.97 215.12 79.12 215.27 79.12 215.27 79.26 215.27 79.41 215.41 79.56 215.41 79.71 215.41 79.86 215.56 80 215.56 80.15 215.56 80.29 215.56 80.44 215.56 81.03 215.56 81.18 215.56 81.32 215.56 81.47 215.41 81.62 215.41 81.76 215.12 82.64"/>
  <line class="st4" x1="67.24" y1="72.18" x2="65.18" y2="72.76"/>
  <line class="st4" x1="58.27" y1="122.42" x2="37.08" y2="121.83"/>
  <line class="st4" x1="58.41" y1="122.13" x2="141.82" y2="125.8"/>
  <polyline class="st4" points="422.06 101.71 382.05 105.23 163.01 124.48"/>
  <polyline class="st4" points="110.05 51.46 110.19 51.61 110.34 51.76 110.49 51.76 110.78 51.9 110.93 52.05 111.22 52.2 111.67 52.35 111.96 52.49 112.25 52.49 112.7 52.64 113.28 52.79 113.87 52.93 114.46 52.93 115.2 53.08 115.93 53.23 116.81 53.37 117.84 53.52 119.02 53.67 120.2 53.82 121.52 53.96 122.99 54.11 123.58 54.11"/>
  <polyline class="st4" points="98.87 42.06 98.87 42.36 98.87 42.5 98.87 42.65 98.87 42.79 98.87 42.94 99.01 43.09 99.16 43.38 99.31 43.53 99.45 43.68 99.6 43.68 99.6 43.82 99.75 43.82 99.9 43.97 100.04 43.97 100.19 44.12 100.48 44.26 100.78 44.26 100.93 44.41 101.37 44.56 101.66 44.71 101.96 44.71 102.4 44.85 102.84 45 103.43 45 104.02 45.15 104.75 45.15 105.49 45.29 106.22 45.44 107.11 45.44 108.13 45.59 109.31 45.59 110.49 45.73 111.81 45.88 113.28 45.88 114.9 46.03 116.81 46.17 118.73 46.17 120.93 46.32 123.29 46.47 125.93 46.62 128.88 46.76 132.41 46.76 136.08 46.91 140.35 46.91 145.06 47.06 150.21 47.2 156.24 47.2 162.86 47.2 168.15 47.2"/>
  <polyline class="st4" points="174.92 41.91 172.86 41.47 171.39 41.18 169.77 40.74 168.01 40.3 160.65 38.68 153.88 37.07 147.56 35.74 141.67 34.42 136.23 33.39 130.94 32.51 126.08 31.78 121.52 31.48 118.58 31.48 117.99 31.63 117.25 31.63 116.67 31.63 116.08 31.63 115.49 31.78 114.9 31.78 114.31 31.92 113.87 31.92 113.28 32.07 112.84 32.07 112.25 32.22 111.81 32.36 111.37 32.51 110.93 32.51 110.49 32.66 110.19 32.81 109.75 32.95 109.31 33.1 108.87 33.25 108.43 33.39 107.69 33.69 107.4 33.98 106.96 34.13 106.52 34.28 106.22 34.42 105.93 34.57 105.63 34.86 105.34 35.01 105.05 35.16 104.75 35.3 104.46 35.45 104.16 35.74 103.87 35.89 103.57 36.04 103.43 36.19 103.13 36.33 102.99 36.63 102.69 36.77 102.55 36.92 102.25 37.07 102.1 37.36 101.81 37.51 101.66 37.65 101.51 37.8 101.37 38.1 101.07 38.24 100.93 38.39 100.78 38.54 100.63 38.83 100.48 38.98 100.34 39.12 100.19 39.27 100.04 39.42 99.9 39.56 99.9 39.86 99.75 40.01 99.6 40.15 99.6 40.3 99.45 40.45 99.31 40.59 99.31 40.74 99.16 40.89 99.16 41.03 99.01 41.03 99.01 41.18 99.01 41.33 98.87 41.47 98.87 41.62 98.87 41.77 98.87 41.91 98.87 42.06"/>
  <polyline class="st4" points="99.6 43.68 103.28 46.47 106.81 49.11 110.05 51.46"/>
  <polyline class="st2" points="19.14 102.73 19.28 102.73 19.58 102.88 19.87 102.88 20.17 103.03 21.05 103.18 22.08 103.47 23.55 103.76 25.31 104.06 27.23 104.5 29.58 104.79 32.23 105.09 33.85 105.38"/>
  <line class="st3" x1="123.73" y1="53.82" x2="123.73" y2="53.82"/>
  <line class="st4" x1="422.2" y1="89.51" x2="387.63" y2="89.51"/>
  <line class="st2" x1="387.63" y1="89.51" x2="386.31" y2="89.51"/>
  <line class="st4" x1="391.75" y1="87.9" x2="419.12" y2="87.9"/>
  <line class="st1" x1="260.72" y1="75.15" x2="181.43" y2="101.01"/>
  <polyline class="st4" points="65.18 72.76 63.12 72.76 61.06 72.76 58.85 72.91 55.62 73.06 51.79 73.35 47.82 73.65 44 73.94 40.61 74.23 37.38 74.67 34.29 74.97 31.49 75.41 28.85 75.7 26.2 76.14 23.84 76.59 21.64 76.88 19.58 77.32 17.52 77.76 15.75 78.2 15.75 94.36 15.75 94.51 15.9 94.65 16.05 94.95 16.19 95.09"/>
  <line class="st4" x1="260.68" y1="75.12" x2="345.27" y2="84.37"/>
  <line class="st2" x1="114.02" y1="52.93" x2="113.87" y2="52.93"/>
  <line class="st2" x1="102.4" y1="44.85" x2="102.25" y2="44.85"/>
  <line class="st4" x1="204.93" y1="58.66" x2="260.68" y2="75.12"/>
  <polyline class="st1" points="65.22 72.8 64.19 72.8 62.42 72.95 60.36 73.1 57.57 73.39 54.48 73.68 51.09 74.27 47.57 75.01 43.89 75.74 40.36 76.62 37.12 77.65 34.03 78.53 31.09 79.56 28.44 80.59 25.94 81.62 23.88 82.79 21.97 83.82 20.5 84.85 19.32 85.88 18.29 86.76 17.7 87.35 17.11 88.08 16.97 88.23 16.82 88.52 16.53 89.11 16.23 89.4 16.23 89.7 16.08 90.14 16.08 90.29 16.08 90.43 16.08 90.58 16.08 90.73 16.08 91.02 15.94 91.17 15.94 92.49 16.08 92.78 16.08 92.93 16.08 93.22 16.08 93.37 16.08 93.66 16.08 93.81 16.08 94.11 16.08 94.25 16.08 94.54 16.23 94.69 16.23 94.98 16.23 95.13"/>
  <polyline class="st4" points="16.19 95.09 16.19 95.09 16.19 95.24 16.19 95.39 16.19 95.68 16.34 95.83 16.34 95.98 16.34 96.12 16.34 96.27 16.34 96.42 16.34 96.56 16.49 96.56 16.49 96.71 16.49 96.86 16.49 97 16.49 97.15 16.64 97.3 16.64 97.44 16.64 97.59 16.78 97.74 16.78 97.89 16.93 98.03 16.93 98.18 16.93 98.33 17.08 98.33 17.08 98.47 17.08 98.62 17.22 98.62 17.22 98.77 17.37 98.91 17.37 99.06 17.52 99.21 17.66 99.36 17.66 99.5 17.81 99.65 17.96 99.8 18.11 100.09 18.25 100.24 18.4 100.38 18.4 100.68 18.55 100.82 18.7 100.97 18.7 101.12 18.84 101.27 18.84 101.56 18.84 101.71 18.99 101.85 18.99 102 18.99 102.15 19.14 102.15 19.14 102.29 19.14 102.44 19.14 102.59 19.14 103.03 19.14 103.32 19.14 103.47 18.99 103.47 18.99 103.62 18.99 103.76 18.99 103.91 18.84 103.91 18.84 104.06 18.84 104.2 18.84 104.5 18.84 104.64 18.99 104.64 21.78 115.37 21.78 115.52 21.93 115.66 21.93 115.81 22.08 115.96 22.23 116.1 22.37 116.25 22.37 116.4 22.52 116.54 22.67 116.54 22.96 116.84 23.11 116.98 23.7 117.28 23.84 117.43 24.14 117.57 24.28 117.57 24.43 117.72 24.58 117.87 24.73 117.87 24.87 117.87 25.02 118.01 25.17 118.01 25.31 118.16 25.46 118.16 25.61 118.16 25.76 118.31 26.05 118.45 26.2 118.45 26.34 118.6 26.49 118.6 26.64 118.6 26.93 118.75 27.08 118.75 27.23 118.89 27.52 118.89 27.67 119.04 27.82 119.04 27.96 119.04 28.26 119.19 28.4 119.19 28.55 119.19 28.7 119.34 28.85 119.34 28.99 119.48 29.14 119.48 29.29 119.48 29.43 119.48 29.58 119.63 29.73 119.63 29.88 119.63 30.61 119.92 31.49 120.07 32.23 120.21 32.96 120.36 33.7 120.51 34.43 120.66 35.02 120.8 35.76 120.95 36.35 121.1 36.49 121.1"/>
  <polyline class="st4" points="132.41 54.99 133.14 54.99 135.79 55.28 138.73 55.58 142.26 55.72 146.09 56.02 150.35 56.31 155.06 56.46 160.36 56.9 166.24 57.19 173.01 57.49 173.45 57.49 173.6 57.49 173.75 57.49 174.04 57.34 174.19 57.34 174.33 57.34 174.48 57.34 174.77 57.19 174.92 57.19 175.07 57.05 175.21 56.9 175.36 56.9 175.51 56.75 175.8 56.6 175.8 56.46 175.95 56.46 176.1 56.31 176.24 56.16 176.39 56.02 176.69 55.72"/>
  <line class="st2" x1="121.52" y1="31.48" x2="121.52" y2="31.48"/>
  <line class="st2" x1="168.01" y1="40.3" x2="168.01" y2="40.3"/>
  <line class="st2" x1="172.86" y1="41.47" x2="172.86" y2="41.47"/>
  <polyline class="st4" points="411.61 .49 442.51 .49 411.61 .49"/>
  <line class="st4" x1="394.99" y1="3.87" x2="345.27" y2="84.37"/>
  <polyline class="st4" points="378.07 98.91 378.07 98.91 378.07 99.06 378.07 99.21 378.22 99.21 378.22 99.36 378.37 99.5 378.51 99.5 378.66 99.65 378.81 99.8 378.95 99.94 379.1 99.94 379.25 100.09 379.54 100.24 379.69 100.24 379.98 100.38 380.28 100.53 380.57 100.53 380.72 100.68 381.01 100.68 381.31 100.82 381.6 100.82 381.9 100.97 382.34 100.97 382.63 101.12 383.37 101.12 383.81 101.27 384.25 101.27 384.69 101.41 384.99 101.41 385.43 101.41 385.87 101.56 386.46 101.56 386.9 101.56 387.34 101.56 387.93 101.71 388.37 101.71 388.96 101.71 389.55 101.71 389.99 101.71 390.58 101.71 392.34 101.71 392.93 101.71 393.52 101.71 394.84 101.71 395.43 101.71 396.17 101.71 396.9 101.71 397.49 101.71 398.23 101.71 398.96 101.56 399.7 101.56 400.43 101.56 401.17 101.56 402.05 101.41 402.79 101.41 403.52 101.41 404.26 101.27 404.99 101.27 405.88 101.27 406.61 101.12 407.49 101.12 408.52 100.97 409.41 100.82 410.44 100.82 411.47 100.68 412.5 100.68 413.38 100.53 414.26 100.38 415.88 100.24 416.61 100.24 418.38 99.94 419.12 99.94 420 99.8 420.73 99.8 421.47 99.65 427.36 98.91"/>
  <polyline class="st4" points="427.36 98.91 427.36 98.91 427.36 98.77"/>
  <polyline class="st4" points="427.36 98.62 421.47 97.89 420.73 97.89 420 97.74 419.12 97.74 418.38 97.59 417.5 97.44 416.76 97.44 415.88 97.3 415.14 97.3 414.26 97.15 413.52 97 412.64 97 411.61 96.86 410.59 96.86 409.7 96.71 408.67 96.71 407.79 96.56 406.9 96.42 406.02 96.42 405.29 96.42 404.55 96.27 403.82 96.27 403.08 96.27 402.2 96.12 401.46 96.12 400.73 96.12 399.99 95.98 399.26 95.98 398.52 95.98 397.78 95.98 397.2 95.98 396.46 95.98 395.73 95.83 395.14 95.83 394.4 95.83 391.46 95.83 390.87 95.83 390.28 95.83 389.69 95.98 389.25 95.98 388.66 95.98 388.22 95.98 387.63 95.98 386.75 95.98 386.16 96.12 385.72 96.12 385.28 96.12 384.84 96.27 384.55 96.27 384.11 96.27 383.66 96.42 383.22 96.42 382.93 96.56 382.49 96.56 382.19 96.71 381.9 96.71 381.6 96.86 381.31 96.86 381.01 96.86 380.72 97 380.43 97 380.28 97.15 379.98 97.3 379.69 97.3 379.4 97.44 379.25 97.59 378.95 97.59 378.95 97.74 378.66 97.89 378.51 97.89 378.51 98.03 378.37 98.18 378.22 98.33 378.07 98.47 378.07 98.62 378.07 98.91"/>
  <line class="st1" x1="411.65" y1=".52" x2="387.67" y2="89.55"/>
  <line class="st2" x1="391.46" y1="89.51" x2="391.75" y2="87.9"/>
  <line class="st4" x1="422.2" y1="89.51" x2="422.06" y2="98.03"/>
  <line class="st4" x1="422.06" y1="99.65" x2="422.06" y2="101.71"/>
  <line class="st4" x1="419.12" y1="87.9" x2="442.51" y2=".49"/>
  <line class="st1" x1="345.31" y1="84.41" x2="386.35" y2="89.55"/>
  <polyline class="st4" points="411.17 .49 410.14 .49 409.55 .49 408.52 .49 407.94 .49 407.49 .49 407.05 .49 406.46 .49 406.02 .63 405.14 .63 404.7 .63 404.26 .78 403.82 .78 403.38 .78 403.08 .78 402.64 .93 402.2 .93 401.46 1.07 401.17 1.07 400.73 1.22 400.43 1.22 400.14 1.37 399.84 1.37 399.4 1.52 399.26 1.52 398.82 1.66 398.67 1.66 398.37 1.81 398.08 1.81 397.78 1.96 397.49 2.1 397.34 2.1 397.05 2.25 396.9 2.4 396.75 2.4 396.46 2.54 396.31 2.69 396.17 2.69 396.02 2.84 395.87 2.99 395.73 3.13 395.58 3.28 395.43 3.42 395.28 3.57 395.14 3.57 395.14 3.72 394.99 3.87"/>
  <line class="st4" x1="67.24" y1="72.18" x2="67.24" y2="72.32"/>
  <polyline class="st4" points="388.37 101.71 357.63 100.38 354.68 100.24 354.39 100.24 354.24 100.09 353.95 99.94 353.8 99.8 353.65 99.65 353.51 99.5 353.36 99.21 353.36 99.06 353.36 98.62 353.36 98.33 353.51 98.18 353.65 97.89 353.8 97.74 353.95 97.59 354.24 97.44 354.39 97.44 354.68 97.44 357.63 97.3 388.66 95.98"/>
  <polyline class="st4" points="382.34 105.23 382.49 105.53 382.63 105.82 382.78 106.11"/>
  <line class="st4" x1="382.78" y1="106.11" x2="389.99" y2="113.31"/>
  <polyline class="st4" points="389.99 113.31 390.28 113.46 390.58 113.61 391.02 113.75"/>
  <polyline class="st4" points="391.02 113.75 393.67 113.75 393.67 113.31 391.02 113.31"/>
  <polyline class="st4" points="390.28 113.02 390.58 113.16 390.72 113.31 391.02 113.31"/>
  <line class="st4" x1="390.28" y1="113.02" x2="383.07" y2="105.82"/>
  <polyline class="st4" points="382.78 105.09 382.93 105.53 383.07 105.82"/>
  <polyline class="st4" points="15.16 94.21 15.02 94.21 14.72 94.07 14.58 94.07 14.28 94.07 14.13 94.07 13.99 93.92 13.69 93.92 13.55 93.92 13.25 93.77 13.11 93.77 12.96 93.77 12.66 93.63 12.52 93.63 12.22 93.63 12.08 93.48 11.78 93.48 11.64 93.33 11.34 93.33 11.19 93.18 10.9 93.18 10.6 93.18 10.46 93.04 10.16 93.04 10.02 92.89 9.72 92.89 9.57 92.75 9.28 92.75 9.13 92.6 8.84 92.45 8.54 92.45 8.4 92.3 8.1 92.3 7.96 92.16 7.66 92.16 7.37 92.01 7.22 91.86 6.93 91.86 6.78 91.72 6.48 91.57 6.19 91.42 6.04 91.42 5.75 91.28 5.6 91.13 5.31 91.13 5.16 90.98 4.87 90.84 4.57 90.69 4.43 90.54 4.28 90.54 3.99 90.39 3.84 90.25 3.54 90.1 3.4 89.95 3.25 89.95 2.95 89.81 2.81 89.66 2.66 89.51 2.51 89.37 2.22 89.22 2.07 89.07 1.93 89.07 1.78 88.93 1.63 88.78 1.48 88.63 1.34 88.48 1.19 88.34 1.04 88.19 .89 88.04 .89 87.9 .75 87.75 .6 87.6 .6 87.46 .45 87.31 .31 87.16 .31 87.02 .31 86.87 .16 86.72 .16 86.57 .16 86.43 .16 86.28 .16 86.13 .16 85.99 .16 85.84 .31 85.69 .31 85.55 .31 85.4 .45 85.25 .45 85.1 .6 84.96 .6 84.81 .75 84.66 .89 84.66 .89 84.52 1.04 84.37 1.19 84.22 1.34 84.08 1.48 83.93 1.63 83.78 1.78 83.64 2.07 83.34 2.22 83.34 2.51 83.19 2.66 83.05 2.81 82.9 2.95 82.75 3.25 82.61 3.4 82.46 3.54 82.46 3.84 82.31 3.99 82.17 4.28 82.02 4.43 81.87 4.57 81.73 4.87 81.73 5.16 81.58 5.31 81.43 5.6 81.28 5.75 81.28 6.04 81.14 6.19 80.99 6.48 80.85 6.78 80.85 6.93 80.7 7.22 80.55 7.37 80.55 7.66 80.4 7.96 80.4 8.1 80.26 8.4 80.11 8.54 80.11 8.84 79.96 9.13 79.96 9.28 79.82 9.57 79.82 9.72 79.67 10.02 79.67 10.16 79.52 10.46 79.52 10.6 79.38 10.9 79.38 11.19 79.23 11.34 79.08 11.64 79.08 11.78 79.08 12.08 78.94 12.22 78.94 12.52 78.94 12.66 78.79 12.96 78.79 13.11 78.79 13.25 78.64 13.55 78.64 13.69 78.64 13.99 78.5 14.13 78.5 14.28 78.5 14.58 78.5 14.72 78.35 15.02 78.35 15.16 78.35 15.16 94.21"/>
  <rect class="st0" x="390.47" y="98.66" width=".15" height=".15"/>
  <rect class="st1" x="390.47" y="98.66" width=".15" height=".15"/>
  <rect class="st0" x="399.44" y="47.68" width=".15" height=".29"/>
  <rect class="st1" x="399.44" y="47.68" width=".15" height=".29"/>
  <line class="st4" x1="174.19" y1="47.2" x2="196.25" y2="47.2"/>
  <line class="st4" x1="174.92" y1="41.91" x2="196.25" y2="46.91"/>
  <polyline class="st4" points="196.25 47.2 196.4 47.06 196.25 46.91"/>
  <polyline class="st4" points="196.25 47.2 174.19 47.2 168.15 47.2"/>
  <line class="st4" x1="174.92" y1="41.91" x2="196.25" y2="46.91"/>
  <polyline class="st4" points="196.25 47.2 196.4 47.06 196.25 46.91"/>
  <line class="st4" x1="184.33" y1="57.93" x2="206.4" y2="58.66"/>
  <line class="st2" x1="184.33" y1="57.93" x2="178.3" y2="57.63"/>
  <polyline class="st2" points="177.71 57.49 177.86 57.63 178.3 57.63"/>
  <polyline class="st4" points="206.4 58.66 206.55 58.66 206.55 58.51 206.4 58.51"/>
  <line class="st4" x1="196.4" y1="46.91" x2="206.55" y2="58.51"/>
  <line class="st4" x1="177.71" y1="57.49" x2="167.71" y2="47.2"/>
  <polyline class="st1" points="132.89 56.79 135.09 55.47 172.46 59.87 173.63 60.46 157.6 100.57 147.89 105.27"/>
  <polyline class="st1" points="140.68 108.79 133.33 112.32 93.02 113.94 77.13 89.4 125.83 61.05"/>
  <polyline class="st1" points="137.89 58.7 137 58.7 136.12 58.7 135.39 58.85 134.5 59.14 133.77 59.43"/>
  <line class="st1" x1="137.74" y1="58.7" x2="167.02" y2="62.23"/>
  <polyline class="st1" points="168.78 65.02 168.93 64.72 168.93 64.28 168.93 63.99 168.78 63.55 168.63 63.25 168.34 62.96 168.19 62.67 167.75 62.37 167.46 62.23 167.02 62.23"/>
  <line class="st1" x1="168.78" y1="65.16" x2="156.13" y2="96.75"/>
  <polyline class="st1" points="153.33 99.69 153.92 99.25 154.51 98.8 155.1 98.36 155.54 97.92 155.83 97.34 156.13 96.6"/>
  <line class="st1" x1="153.33" y1="99.69" x2="147.15" y2="102.63"/>
  <line class="st1" x1="139.8" y1="106.15" x2="133.62" y2="109.23"/>
  <polyline class="st1" points="130.83 109.82 131.56 109.82 132.3 109.68 133.03 109.38 133.62 109.09"/>
  <line class="st1" x1="130.83" y1="109.82" x2="96.26" y2="111.29"/>
  <polyline class="st1" points="93.76 109.97 94.05 110.41 94.34 110.7 94.79 110.85 95.23 111.14 95.67 111.14 96.26 111.29"/>
  <line class="st1" x1="93.76" y1="109.97" x2="82.28" y2="92.34"/>
  <polyline class="st1" points="83.02 89.4 82.58 89.7 82.43 89.99 82.14 90.29 81.99 90.73 81.99 91.17 81.99 91.61 82.14 92.05 82.28 92.34"/>
  <line class="st1" x1="83.02" y1="89.4" x2="126.56" y2="63.69"/>
  <line class="st1" x1="67.28" y1="72.21" x2="76.84" y2="87.05"/>
  <line class="st1" x1="92.43" y1="112.91" x2="59.77" y2="114.23"/>
  <line class="st4" x1="59.44" y1="114.19" x2="39.44" y2="114.93"/>
  <line class="st1" x1="153.48" y1="55.47" x2="153.48" y2="55.47"/>
  <polyline class="st1" points="144.36 138.47 145.24 138.47 145.98 138.47 146.86 138.47 147.74 138.47 148.63 138.62 149.51 138.62 150.25 138.76 151.86 138.91 152.74 139.06 153.48 139.2 154.22 139.2 155.1 139.35 155.98 139.5 156.86 139.65 157.6 139.79 158.34 139.94 159.22 140.09 159.95 140.23 160.69 140.38 161.42 140.53 162.31 140.67 163.04 140.82 163.78 141.11 164.66 141.26 165.54 141.41 166.28 141.7 167.16 141.85 168.04 142.14 168.93 142.29 169.37 142.44 170.25 142.58 171.13 142.88 171.72 143.02"/>
  <polyline class="st4" points="169.18 151.07 167.86 151.65 166.39 152.24 165.07 152.68 163.74 153.27 162.27 153.71 160.94 154.15 159.47 154.59 158.15 155.03 157.56 155.18 157.56 154.89 157.42 154.59 157.12 154.3 156.98 154.15 156.68 153.86 156.53 153.71 156.24 153.56 156.09 153.42 155.8 153.42 155.65 153.27 155.21 153.12 155.06 153.12 154.77 153.12 154.62 153.12 154.47 152.98 154.18 152.98 154.03 152.98 152.56 152.98 151.97 153.12 151.68 153.12 151.38 153.12 150.94 153.12 150.65 153.27 150.21 153.27 149.77 153.27 149.32 153.27 148.88 153.42 148.3 153.42 147.71 153.42 146.97 153.42 146.24 153.56 145.35 153.56 141.38 153.56 138.59 153.27 135.94 152.83 134.17 152.83 132.7 152.98 131.53 153.71 131.08 154.3 130.94 154.74 130.79 154.74 130.64 154.59 130.35 154.59 130.05 154.45 129.76 154.3 129.61 154.15 129.32 154.01 129.17 153.86 128.88 153.71 128.14 153.12 127.99 152.98 127.7 152.83 127.55 152.68 127.4 152.39 127.11 152.24 126.96 151.95 126.82 151.8 126.67 151.65 126.52 151.36 126.38 151.07 126.38 150.92 126.23 150.63 126.08 150.33 126.08 150.04 126.08 149.89 125.93 149.6 125.93 148.86 126.08 148.57 126.08 148.13 126.23 147.39 126.38 147.1 126.52 146.81 126.67 146.36 126.82 146.07 126.96 145.78 127.11 145.34 127.4 145.04 127.55 144.75 127.7 144.45 127.99 144.16 128.29 143.87 128.44 143.58 128.73 143.28 129.02 142.99 129.32 142.69 129.61 142.55 129.76 142.25 130.05 141.96 130.35 141.81 130.64 141.52 131.08 141.08 131.38 140.93 131.67 140.78 131.97 140.64 132.26 140.49 132.41 140.34 132.7 140.2 132.85 140.05 133.14 139.9 133.29 139.75 134.02 139.46 134.76 139.02 135.5 138.73 136.23 138.43 136.97 138.29 137.7 137.99 138.44 137.7 139.17 137.55 139.91 137.4 140.65 137.26 141.38 137.11 142.12 137.11 142.85 136.96 143.59 136.96 144.32 136.96 146.97 136.96 149.77 137.11 152.71 137.11 155.8 137.26 158.89 137.4 162.12 137.7 165.51 137.84 169.04 138.14 172.57 138.43 172.71 138.43 172.86 138.43 173.01 138.43 173.16 138.58 173.3 138.73 173.45 138.73 173.45 138.87 173.6 139.02 173.6 139.17 173.6 139.31 173.6 139.61 173.6 139.75 171.1 148.86 171.1 149.01 170.95 149.3 170.95 149.45 170.8 149.6 170.65 149.74 170.65 150.04 170.51 150.18 170.36 150.33 170.21 150.48 170.07 150.48 169.92 150.63 169.77 150.77 169.62 150.92 169.48 150.92 169.18 151.07"/>
  <polyline class="st4" points="132.26 153.27 132.55 154.15 132.85 155.18 133.14 155.92 133.58 156.8 134.17 157.68 134.61 158.41 135.35 159.15 135.94 159.73 136.67 160.32 137.41 160.91 138.29 161.35 139.17 161.94 140.06 162.23 140.94 162.52 141.82 162.82 142.7 162.97 143.73 162.97 144.62 162.97 145.65 162.97 146.53 162.82 147.41 162.67 148.3 162.38 149.18 161.94 150.06 161.64 150.94 161.06 151.68 160.61 152.41 160.03 153.15 159.29 153.74 158.56 154.33 157.83 154.92 157.09 155.36 156.21 155.65 155.47 156.09 154.59 156.39 153.56"/>
  <polyline class="st4" points="144.32 150.04 144.17 150.04 143.88 150.18 143.73 150.33 143.73 150.48 143.73 150.77 143.73 150.92 143.88 151.21 144.03 151.21 144.17 151.36 144.47 151.36 144.62 151.21 144.76 151.21 144.91 150.92 145.06 150.77 144.91 150.48 144.91 150.33 144.76 150.18 144.47 150.04 144.32 150.04"/>
  <polyline class="st4" points="139.62 153.27 140.06 153.86 140.35 154.3 140.94 154.74 141.38 155.18 141.97 155.47 142.41 155.62 143.15 155.92 143.73 156.06 144.32 156.06 144.91 156.06 145.5 155.92 146.09 155.77 146.68 155.47 147.27 155.18 147.85 154.74 148.3 154.3 148.59 153.86 149.03 153.27"/>
  <polyline class="st4" points="56.65 151.51 56.35 151.51 56.21 151.65 56.06 151.8 55.91 151.95 55.91 152.24 56.06 152.39 56.06 152.68 56.35 152.68 56.5 152.83 56.65 152.83 56.94 152.68 57.09 152.68 57.24 152.39 57.24 152.24 57.24 151.95 57.09 151.8 56.94 151.65 56.79 151.51 56.65 151.51"/>
  <polyline class="st4" points="44.73 155.33 44.88 156.21 45.32 157.09 45.76 157.97 46.2 158.7 46.79 159.59 47.38 160.32 47.97 160.91 48.7 161.5 49.44 162.23 50.17 162.67 51.06 163.11 51.79 163.55 52.68 163.85 53.56 164.14 54.59 164.29 55.47 164.44 56.5 164.44 57.38 164.44 58.27 164.29 59.3 164.14 60.18 163.99 61.06 163.7 61.94 163.26 62.68 162.82 63.56 162.38 64.3 161.79 65.03 161.2 65.62 160.47 66.21 159.73 66.8 159 67.39 158.26 67.83 157.38 68.12 156.5 68.42 155.62"/>
  <polyline class="st4" points="53.56 156.5 54.15 156.8 54.74 157.09 55.32 157.38 55.91 157.53 56.65 157.53 57.24 157.53 57.82 157.38 58.56 157.09 59.15 156.8 59.59 156.5"/>
  <polyline class="st4" points="56.65 156.65 59.74 156.5 63.27 156.21 66.94 155.47 67.39 155.47 67.68 155.47 67.97 155.62 68.27 155.62 68.42 155.62 68.71 155.77 68.86 155.77 68.86 155.92 69.01 155.92 69.15 156.06 69.3 156.06 69.45 156.06 71.8 155.47 74.15 154.74 75.33 154.3 76.65 153.86 77.83 153.42 79.16 152.98 80.48 152.39 81.8 151.8 82.39 151.51 82.98 151.07 83.42 150.48 83.71 149.74 86.51 139.02 86.51 138.58 86.51 138.29 86.36 138.14 86.22 137.84 85.92 137.7 85.63 137.7 77.39 137.11 69.74 136.67 62.68 136.38 62.53 136.38 62.24 136.23 62.09 136.23 58.12 135.79 57.82 135.79 57.68 135.79 57.38 135.93 57.09 136.08 56.94 136.23 56.65 136.23 55.47 136.23 54.44 136.38 53.41 136.52 53.26 136.52 52.97 136.52 52.68 136.67 50.76 137.84 50.62 137.84 50.47 137.99 50.32 137.99 50.17 137.99 46.5 135.93 46.06 136.38 42.08 141.67"/>
  <line class="st4" x1="41.79" y1="141.96" x2="41.94" y2="141.67"/>
  <polyline class="st4" points="41.79 141.96 40.47 143.58 39.44 145.04 38.7 146.66 38.41 147.98 38.26 149.45 38.26 150.18 38.56 150.92 39 151.65 39.58 152.54 40.47 153.27 41.5 154.15 42.82 154.89 44.14 155.47 44.29 155.47 44.44 155.47 44.59 155.47 44.73 155.33 44.88 155.18 45.03 155.18 45.32 155.03 45.62 155.03 45.91 154.89 46.35 155.03 46.65 155.03 47.67 155.47 48.7 155.77 49.73 155.92 50.76 156.21 51.79 156.36 52.82 156.5 54 156.5 55.32 156.65 56.65 156.65"/>
  <polyline class="st1" points="56.69 138.32 57.28 138.32 58.01 138.47 58.74 138.47 59.33 138.47 60.07 138.62 61.54 138.76 62.28 138.91 63.01 139.06 63.89 139.2 64.63 139.2 65.51 139.5 66.4 139.65 67.28 139.79 68.16 139.94 69.19 140.09 70.37 140.38 71.54 140.67 72.57 140.82 73.75 141.11 74.93 141.41 76.1 141.7 77.28 141.85 78.6 142.14 79.93 142.58 81.4 142.88 82.87 143.17 84.19 143.61"/>
  <line class="st4" x1="54.44" y1="131.82" x2="52.24" y2="129.91"/>
  <line class="st4" x1="52.09" y1="130.21" x2="46.94" y2="136.23"/>
  <line class="st2" x1="62.24" y1="133.14" x2="59" y2="132.7"/>
  <line class="st1" x1="59.63" y1="132.3" x2="59.48" y2="132.15"/>
  <polyline class="st1" points="60.36 126.86 60.51 126.86 60.66 126.86 60.8 126.86 60.95 126.86 61.25 126.86 61.98 126.86 62.28 126.86"/>
  <polyline class="st1" points="62.28 131.13 61.25 131.13 60.51 130.98 59.63 130.98 59.63 131.13 59.48 131.13 59.33 131.13 59.33 131.27 59.33 131.42 59.48 131.57 59.63 131.57 59.77 131.71 59.92 131.71"/>
  <line class="st1" x1="62.42" y1="132.74" x2="59.19" y2="132.3"/>
  <polyline class="st1" points="59.77 131.57 60.51 131.57 61.1 131.57 61.39 131.57 61.69 131.57 61.98 131.57 62.13 131.57 62.28 131.57 62.42 131.57 62.42 131.42 62.57 131.42 62.57 131.27 62.57 131.13 62.42 131.13 62.42 130.98 62.28 130.98 62.13 130.83 61.98 130.83"/>
  <polyline class="st1" points="60.07 129.66 60.07 129.66 60.66 129.66 61.1 129.66 61.69 129.66 62.57 129.66 62.72 129.66 62.86 129.51 62.86 129.36 62.72 129.22 62.57 129.07 62.42 129.07 62.28 129.07 62.13 128.92 61.98 128.92 61.83 128.92 61.69 128.77"/>
  <line class="st1" x1="59.92" y1="131.86" x2="59.92" y2="131.57"/>
  <line class="st1" x1="60.07" y1="130.98" x2="60.07" y2="130.54"/>
  <line class="st1" x1="60.22" y1="130.1" x2="60.22" y2="129.66"/>
  <line class="st1" x1="60.95" y1="126.28" x2="60.95" y2="125.98"/>
  <line class="st1" x1="61.25" y1="126.86" x2="61.25" y2="127.31"/>
  <line class="st1" x1="61.1" y1="127.75" x2="61.1" y2="128.33"/>
  <line class="st1" x1="60.95" y1="128.77" x2="60.95" y2="129.22"/>
  <line class="st1" x1="61.98" y1="126.86" x2="61.98" y2="127.45"/>
  <line class="st1" x1="61.83" y1="127.89" x2="61.83" y2="128.33"/>
  <line class="st1" x1="61.69" y1="128.77" x2="61.69" y2="129.22"/>
  <line class="st1" x1="61.83" y1="132.15" x2="61.98" y2="131.57"/>
  <line class="st1" x1="61.98" y1="131.13" x2="62.13" y2="130.54"/>
  <line class="st1" x1="62.13" y1="130.1" x2="62.28" y2="129.66"/>
  <polyline class="st1" points="62.57 128.33 62.57 128.33 62.42 128.33 62.13 128.33 61.98 128.33 61.25 128.33 60.95 128.33 60.07 128.33 59.92 128.33 59.77 128.48 59.77 128.63 59.92 128.77 60.07 128.77 60.07 128.92 60.22 128.92 60.36 128.92 60.51 128.92 60.66 129.07 60.8 129.07 60.95 129.07"/>
  <polyline class="st1" points="62.28 130.1 61.54 130.1 60.66 130.1 60.51 130.1 59.92 130.1 59.77 130.1 59.63 130.1 59.63 130.24 59.48 130.24 59.48 130.39 59.48 130.54 59.63 130.54 59.63 130.68 59.77 130.68 59.92 130.68 60.07 130.83"/>
  <line class="st1" x1="61.1" y1="128.19" x2="61.1" y2="128.19"/>
  <polyline class="st1" points="60.22 128.77 60.22 128.77 60.95 128.77 61.83 128.77 61.98 128.77 62.57 128.77 62.72 128.77 62.86 128.77 62.86 128.63 63.01 128.63 63.01 128.48 62.86 128.33 62.72 128.19 62.57 128.19 62.42 128.04 62.28 128.04 61.98 128.04 61.83 127.89"/>
  <polyline class="st1" points="59.92 130.54 60.07 130.54 60.22 130.54 60.36 130.54 60.95 130.54 61.54 130.54 62.42 130.54 62.57 130.54 62.72 130.39 62.72 130.24 62.57 130.24 62.57 130.1 62.42 130.1 62.28 129.95 62.13 129.95"/>
  <polyline class="st1" points="62.42 132 62.28 132 62.28 131.86 62.13 131.86 61.98 131.86 61.83 131.71"/>
  <polyline class="st1" points="61.98 132.15 61.98 132 62.13 132 62.28 132 62.42 132 62.42 132.15"/>
  <polyline class="st1" points="62.42 129.22 62.42 129.22 61.83 129.22 61.54 129.22 60.8 129.22 60.07 129.22 59.92 129.22 59.77 129.22 59.63 129.36 59.63 129.51 59.63 129.66 59.77 129.66 59.92 129.8 60.07 129.8 60.22 129.8"/>
  <polyline class="st1" points="62.72 127.45 61.83 127.45 61.1 127.31 60.8 127.31 60.66 127.31 60.51 127.31 60.22 127.31 60.07 127.45 59.92 127.45 59.92 127.6 59.92 127.75 60.07 127.89 60.22 127.89 60.36 128.04 60.51 128.04 60.8 128.04 60.95 128.19 61.1 128.19"/>
  <polyline class="st1" points="60.51 126.42 60.51 126.42 60.36 126.42 60.22 126.42 60.22 126.57 60.07 126.57 60.07 126.72 60.07 126.86 60.22 126.86 60.22 127.01 60.36 127.01 60.51 127.01 60.66 127.16 60.8 127.16 60.95 127.16 61.1 127.31 61.25 127.31"/>
  <polyline class="st1" points="62.42 126.72 62.42 126.72 62.42 126.86 62.28 126.86 62.28 126.72"/>
  <polyline class="st1" points="60.22 127.75 61.39 127.75 61.54 127.89 62.13 127.89 62.28 127.89 62.57 127.89 62.72 127.89 62.86 127.89 63.01 127.75 63.16 127.75 63.16 127.6 63.16 127.45 63.01 127.45 63.01 127.31 62.86 127.31 62.72 127.16 62.57 127.16 62.42 127.16 62.28 127.16 62.13 127.01 61.98 127.01"/>
  <line class="st2" x1="61.94" y1="132.56" x2="62.09" y2="132.41"/>
  <line class="st1" x1="61.25" y1="123.93" x2="58.6" y2="122.6"/>
  <line class="st4" x1="52.09" y1="130.21" x2="52.24" y2="129.91"/>
  <polyline class="st4" points="62.24 124.92 61.21 123.89 59.74 125.5 61.5 126.09"/>
  <polyline class="st4" points="61.5 126.09 61.8 126.09 62.09 126.09 62.24 125.95 62.39 125.8 62.53 125.5 62.53 125.36 62.39 125.06 62.24 124.92"/>
  <polyline class="st1" points="48.74 138.18 48.6 138.32 48.45 138.32 48.45 138.47 48.45 138.62 48.6 138.76 48.74 138.91 48.89 138.91 49.04 138.76 49.04 138.62 49.18 138.47 49.04 138.32 48.89 138.32 48.74 138.18"/>
  <polyline class="st4" points="51.65 135.05 51.79 135.2 49.59 137.7"/>
  <line class="st4" x1="49.44" y1="137.55" x2="54.3" y2="131.97"/>
  <line class="st4" x1="54.44" y1="131.82" x2="54.3" y2="131.97"/>
  <line class="st4" x1="54.44" y1="131.82" x2="59.88" y2="125.5"/>
  <line class="st1" x1="62.42" y1="126.42" x2="62.57" y2="125.69"/>
  <polyline class="st1" points="62.57 125.69 62.57 125.4 62.42 125.1 62.28 124.95 62.13 124.81"/>
  <polyline class="st1" points="63.16 126.57 60.22 126.13 60.22 126.42 63.16 126.86 63.31 126.57 63.16 126.57"/>
  <polyline class="st1" points="59.19 132 59.19 131.71 59.33 131.71 62.42 132.15 62.42 132.3 62.42 132.6 59.19 132"/>
  <polyline class="st1" points="59.48 132.3 61.98 132.6 62.42 132.74 62.28 133.18 61.98 133.33 59.48 132.89 59.04 132.74 59.19 132.3 59.48 132.3"/>
  <polyline class="st1" points="61.69 133.18 61.54 134.5 59.48 134.21 59.77 132.89"/>
  <polyline class="st1" points="59.63 134.21 59.33 135.68 59.33 135.97"/>
  <polyline class="st1" points="61.39 134.5 61.25 135.97 61.1 136.12"/>
  <line class="st1" x1="42.42" y1="141.7" x2="49.33" y2="139.06"/>
  <polyline class="st1" points="61.83 125.1 61.69 125.1 61.54 125.25 61.54 125.4 61.54 125.54 61.54 125.69 61.69 125.84 61.98 125.84 62.13 125.69 62.13 125.54 62.13 125.4 62.13 125.25 61.98 125.1 61.83 125.1"/>
  <polyline class="st4" points="61.5 122.27 61.21 123.89 61.21 124.04"/>
  <polyline class="st4" points="58.56 122.13 58.56 122.57 52.24 129.91"/>
  <line class="st2" x1="141.82" y1="125.8" x2="142.41" y2="125.8"/>
  <line class="st2" x1="142.85" y1="125.8" x2="143.73" y2="125.8"/>
  <line class="st2" x1="144.17" y1="125.8" x2="145.06" y2="125.95"/>
  <polyline class="st2" points="145.5 125.95 146.09 125.95 147.12 125.8"/>
  <line class="st2" x1="147.56" y1="125.8" x2="148.44" y2="125.8"/>
  <line class="st2" x1="148.88" y1="125.65" x2="149.77" y2="125.65"/>
  <line class="st2" x1="150.21" y1="125.65" x2="151.09" y2="125.5"/>
  <line class="st2" x1="151.53" y1="125.5" x2="152.41" y2="125.36"/>
  <line class="st2" x1="152.85" y1="125.36" x2="153.74" y2="125.21"/>
  <line class="st2" x1="154.18" y1="125.21" x2="155.06" y2="125.21"/>
  <line class="st2" x1="155.5" y1="125.06" x2="156.39" y2="125.06"/>
  <line class="st2" x1="156.83" y1="125.06" x2="157.56" y2="124.92"/>
  <line class="st2" x1="158.15" y1="124.92" x2="159.03" y2="124.77"/>
  <line class="st2" x1="159.47" y1="124.77" x2="160.36" y2="124.77"/>
  <line class="st2" x1="160.65" y1="124.62" x2="161.53" y2="124.62"/>
  <line class="st2" x1="161.98" y1="124.48" x2="163.01" y2="124.48"/>
  <line class="st2" x1="141.38" y1="137.26" x2="141.82" y2="125.95"/>
  <line class="st2" x1="141.38" y1="125.65" x2="140.79" y2="125.5"/>
  <polyline class="st2" points="141.82 125.95 141.82 125.8 141.82 125.65 141.67 125.65 141.38 125.65"/>
  <polyline class="st2" points="140.79 125.5 140.65 125.36 140.79 125.21 141.23 125.06 141.82 124.77 143.29 124.48 144.76 124.18 146.24 124.04 147.71 123.89 149.18 123.74 152.12 123.59 163.89 123.3"/>
  <polyline class="st2" points="151.53 137.11 152.85 129.47 164.33 123.89 164.33 123.74 164.48 123.59 164.48 123.45 164.33 123.45 164.33 123.3 164.18 123.3 163.89 123.3"/>
  <polyline class="st2" points="141.82 126.97 141.82 126.83 142.56 126.83 143.15 126.97 143.88 126.97 144.62 127.12 146.09 127.41 147.41 127.71 148.88 128.15 150.21 128.59 151.53 129.03 152.27 129.18 152.56 129.32 152.71 129.47 152.85 129.47"/>
</svg>